<svg xmlns="http://www.w3.org/2000/svg" width="400" height="300" viewBox="0 0 400 300">
  <title>Pour les Joueurs</title>
  <!-- Personnage principal -->
  <circle cx="200" cy="120" r="40" fill="#3578e5" opacity="0.8"/>
  <rect x="180" y="160" width="40" height="60" rx="5" fill="#3578e5" opacity="0.8"/>
  <rect x="190" y="220" width="8" height="30" rx="2" fill="#3578e5" opacity="0.8"/>
  <rect x="202" y="220" width="8" height="30" rx="2" fill="#3578e5" opacity="0.8"/>
  
  <!-- Personnage secondaire -->
  <circle cx="120" cy="140" r="30" fill="#60a5fa" opacity="0.6"/>
  <rect x="108" y="170" width="24" height="45" rx="4" fill="#60a5fa" opacity="0.6"/>
  
  <!-- Personnage tertiaire -->
  <circle cx="280" cy="140" r="30" fill="#60a5fa" opacity="0.6"/>
  <rect x="268" y="170" width="24" height="45" rx="4" fill="#60a5fa" opacity="0.6"/>
  
  <!-- Dés de jeu -->
  <rect x="80" y="80" width="20" height="20" rx="3" fill="#4285f4" opacity="0.7"/>
  <circle cx="87" cy="87" r="2" fill="white"/>
  <circle cx="93" cy="87" r="2" fill="white"/>
  <circle cx="90" cy="93" r="2" fill="white"/>
  
  <rect x="300" y="80" width="20" height="20" rx="3" fill="#4285f4" opacity="0.7"/>
  <circle cx="307" cy="87" r="2" fill="white"/>
  <circle cx="313" cy="87" r="2" fill="white"/>
  <circle cx="310" cy="93" r="2" fill="white"/>
  
  <!-- Bulles de dialogue -->
  <path d="M 150 60 Q 140 50 130 60 L 120 70 L 130 75 Z" fill="#93c5fd" opacity="0.5"/>
  <path d="M 250 60 Q 260 50 270 60 L 280 70 L 270 75 Z" fill="#93c5fd" opacity="0.5"/>
</svg>
